<svg xmlns="http://www.w3.org/2000/svg" viewBox="0 0 680 220" width="100%"><rect width="680" height="220" rx="14" fill="#20272d"/><text x="20" y="28" font-family="Arial,sans-serif" font-size="15" font-weight="800" fill="#f0d900">JOBS LIVE PER RELEASE</text><text x="20" y="65" font-family="Arial,sans-serif" font-size="13" fill="#dce5e8">r63</text><rect x="80" y="54" width="440" height="16" rx="8" fill="#12191f"/><rect x="80" y="54" width="440" height="16" rx="8" fill="#22c55e"/><text x="528" y="67" font-family="Arial,sans-serif" font-size="13" font-weight="700" fill="#fbfcfc">24</text><text x="20" y="99" font-family="Arial,sans-serif" font-size="13" fill="#dce5e8">r65</text><rect x="80" y="88" width="440" height="16" rx="8" fill="#12191f"/><rect x="80" y="88" width="110" height="16" rx="8" fill="#22c55e"/><text x="198" y="101" font-family="Arial,sans-serif" font-size="13" font-weight="700" fill="#fbfcfc">6</text><text x="20" y="133" font-family="Arial,sans-serif" font-size="13" fill="#dce5e8">r66</text><rect x="80" y="122" width="440" height="16" rx="8" fill="#12191f"/><rect x="80" y="122" width="55" height="16" rx="8" fill="#22c55e"/><text x="143" y="135" font-family="Arial,sans-serif" font-size="13" font-weight="700" fill="#fbfcfc">3</text><text x="20" y="167" font-family="Arial,sans-serif" font-size="13" fill="#dce5e8">r67</text><rect x="80" y="156" width="440" height="16" rx="8" fill="#12191f"/><rect x="80" y="156" width="183" height="16" rx="8" fill="#22c55e"/><text x="271" y="169" font-family="Arial,sans-serif" font-size="13" font-weight="700" fill="#fbfcfc">10</text></svg>